<svg xmlns="http://www.w3.org/2000/svg" width="470.311" height="564.986" viewBox="0 0 470.311 564.986">
  <g id="day92-freelancing" transform="translate(-489.689 -515.014)">
    <g id="XMLID_1207_" transform="translate(489.689 517.076)">
      <ellipse id="XMLID_1193_" cx="235.1" cy="47.3" rx="235.1" ry="47.3" transform="translate(0 468.009)" fill="#68cce9" opacity="0.64"/>
      <g id="XMLID_43_" transform="translate(120.595 471.909)">
        <path id="XMLID_1211_" d="M379.5,713.2c3.3-10.7,13.4-16.4,29.8-21.2,10.4-3,23.6-4.4,44.3-8.6a63.746,63.746,0,0,0,17.2-6v11.5s-68.5,13.5-79.2,31.2c-5.2,8.7-3.6,30,20.9,32.2-7.5,1.1-19.8-.8-26.4-7.5C377.9,736.5,375.7,725.4,379.5,713.2Z" transform="translate(-377.695 -677.4)" fill="#282323" stroke="#000" stroke-linecap="round" stroke-linejoin="round" stroke-miterlimit="10" stroke-width="4"/>
        <path id="XMLID_1210_" d="M470.8,688.9s-41,7.6-62.9,17c-19.2,8.3-18.6,16.9-19.1,25.7-.3,5.1,3.3,17.7,17.9,19.9,17.4,2.6,37.9-.2,64.1-16.9Z" transform="translate(-377.695 -677.4)" fill="#442c2a"/>
        <path id="XMLID_53_" d="M388.8,731.6c.4-7.1.1-14.1,10.1-20.9a61.5,61.5,0,0,0-.6,7.4c-.3,5.1,12-1.5,26.6.6,15.2,2.3,24.2,19.7,45.9,8v7.8c-26.2,16.7-46.7,19.4-64.1,16.9C392.1,749.3,388.5,736.6,388.8,731.6Z" transform="translate(-377.695 -677.4)" fill="#442c2a" opacity="0.37"/>
        <path id="XMLID_47_" d="M470.8,688.9s-41,7.6-62.9,17c-19.2,8.3-18.6,16.9-19.1,25.7-.3,5.1,3.3,17.7,17.9,19.9,17.4,2.6,37.9-.2,64.1-16.9Z" transform="translate(-377.695 -677.4)" fill="none" stroke="#000" stroke-linecap="round" stroke-linejoin="round" stroke-miterlimit="10" stroke-width="4"/>
        <path id="XMLID_46_" d="M432.8,712.4c-3.3,1.8-2.5,19.3,5.5,21.7" transform="translate(-377.695 -677.4)" fill="none" stroke="#000" stroke-linecap="round" stroke-linejoin="round" stroke-miterlimit="10" stroke-width="4"/>
        <path id="XMLID_45_" d="M445.3,711.1c-3.4,4.8-1,16.1,5.1,18.9" transform="translate(-377.695 -677.4)" fill="none" stroke="#000" stroke-linecap="round" stroke-linejoin="round" stroke-miterlimit="10" stroke-width="4"/>
        <path id="XMLID_44_" d="M456.8,707.1c-3.4,4.8-1,16.1,5.1,18.9" transform="translate(-377.695 -677.4)" fill="none" stroke="#000" stroke-linecap="round" stroke-linejoin="round" stroke-miterlimit="10" stroke-width="4"/>
      </g>
      <path id="XMLID_77_" d="M574.8,655.3c-21.6,15-52.3,23.6-84.4,23.6-32,0-62.8-8.6-84.4-23.6-9.9-6.9-26.5-21.3-26.5-40.5s16.6-33.6,26.5-40.5c21.6-15,52.3-23.6,84.4-23.6,32,0,62.8,8.6,84.4,23.6,9.9,6.9,26.5,21.3,26.5,40.5S584.7,648.4,574.8,655.3Z" transform="translate(-257.1 -205.491)" fill="#151e28"/>
      <path id="XMLID_76_" d="M673.7,630.8c-.4,2-.8,3.9-1.4,5.9C656.7,693.6,581.5,736.8,491,736.8c-90.7,0-166.1-43.4-181.4-100.5-.4-1.6-.8-3.2-1.1-4.8a27.232,27.232,0,0,1,.3-9c3.7-16.8,24.1-26.5,45.6-21.7,14.1,3.1,25.1,11.8,30,22.1a38.271,38.271,0,0,0,2.2,6.5c5.2,12,15.6,21,22.6,26C430.1,670.4,460,679,491,679c31.1,0,60.9-8.6,81.8-23.6,7.1-5.1,17.6-14.2,22.7-26.2a42.223,42.223,0,0,0,2-6c4.8-10.4,15.9-19.1,30.1-22.3,21.5-4.8,41.9,5,45.6,21.7a22.452,22.452,0,0,1,.5,8.2Z" transform="translate(-257.1 -205.491)" fill="#2a3749"/>
      <path id="XMLID_1209_" d="M673.2,622.4a7.364,7.364,0,0,0-.4-1.4,43.708,43.708,0,0,1-1.2,4.9C656.2,682.8,580.9,726,490.5,726c-90.7,0-166.1-43.4-181.4-100.5-.2-.6-.3-1.2-.5-1.9a24.9,24.9,0,0,0-.1,7.7c.3,1.6.7,3.2,1.1,4.8,15.3,57.1,90.7,100.5,181.4,100.5,90.5,0,165.7-43.2,181.3-100.1.5-1.9,1-3.9,1.4-5.9A22.989,22.989,0,0,0,673.2,622.4Z" transform="translate(-257.1 -205.491)" fill="#151e28" opacity="0.67"/>
      <path id="XMLID_56_" d="M673.7,630.8c-.4,2-.8,3.9-1.4,5.9C656.7,693.6,581.5,736.8,491,736.8c-90.7,0-166.1-43.4-181.4-100.5-.4-1.6-.8-3.2-1.1-4.8a27.232,27.232,0,0,1,.3-9c3.7-16.8,24.1-26.5,45.6-21.7,14.1,3.1,25.1,11.8,30,22.1a38.271,38.271,0,0,0,2.2,6.5c5.2,12,15.6,21,22.6,26C430.1,670.4,460,679,491,679c31.1,0,60.9-8.6,81.8-23.6,7.1-5.1,17.6-14.2,22.7-26.2a42.223,42.223,0,0,0,2-6c4.8-10.4,15.9-19.1,30.1-22.3,21.5-4.8,41.9,5,45.6,21.7a22.452,22.452,0,0,1,.5,8.2Z" transform="translate(-257.1 -205.491)" fill="none" stroke="#000" stroke-linecap="round" stroke-linejoin="round" stroke-miterlimit="10" stroke-width="4"/>
      <ellipse id="XMLID_75_" cx="90.1" cy="30.6" rx="90.1" ry="30.6" transform="translate(145 381.709)" fill="#9b2121"/>
      <ellipse id="XMLID_31_" cx="90.1" cy="30.6" rx="90.1" ry="30.6" stroke-width="4" transform="translate(145 381.709)" stroke="#000" stroke-linecap="round" stroke-linejoin="round" stroke-miterlimit="10" fill="none"/>
      <g id="XMLID_89_" transform="translate(103.686 205.609)">
        <path id="XMLID_69_" d="M594.8,551H387.2A26.375,26.375,0,0,1,361,521.3l9.2-73.5a41.827,41.827,0,0,1,41.6-36.7H570.4A41.976,41.976,0,0,1,612,447.8l9.2,73.5A26.633,26.633,0,0,1,594.8,551Z" transform="translate(-360.786 -411.1)" fill="#f1534d"/>
        <path id="XMLID_24_" d="M594.8,551H387.2A26.375,26.375,0,0,1,361,521.3l9.2-73.5a41.827,41.827,0,0,1,41.6-36.7H570.4A41.976,41.976,0,0,1,612,447.8l9.2,73.5A26.633,26.633,0,0,1,594.8,551Z" transform="translate(-360.786 -411.1)" fill="none" stroke="#000" stroke-linecap="round" stroke-linejoin="round" stroke-miterlimit="10" stroke-width="4"/>
        <path id="XMLID_90_" d="M415,473.2" transform="translate(-360.786 -411.1)" fill="none" stroke="#000" stroke-linecap="round" stroke-linejoin="round" stroke-miterlimit="10" stroke-width="4"/>
        <g id="XMLID_1191_" transform="translate(46.914 62.1)">
          <line id="XMLID_1189_" x1="2" y2="25.1" stroke-width="4" stroke="#000" stroke-linecap="round" stroke-linejoin="round" stroke-miterlimit="10" fill="none"/>
          <line id="XMLID_1192_" x2="2" y2="25.1" stroke-width="4" transform="translate(166.1)" stroke="#000" stroke-linecap="round" stroke-linejoin="round" stroke-miterlimit="10" fill="none"/>
        </g>
      </g>
      <g id="XMLID_1194_" transform="translate(103.586 203.809)">
        <path id="XMLID_1202_" d="M594.8,551H387.2A26.375,26.375,0,0,1,361,521.3l9.2-73.5a41.827,41.827,0,0,1,41.6-36.7H570.4A41.976,41.976,0,0,1,612,447.8l9.2,73.5A26.633,26.633,0,0,1,594.8,551Z" transform="translate(-360.686 -409.3)" fill="#f1534d"/>
        <g id="XMLID_4_" opacity="0.24">
          <path id="XMLID_1208_" d="M370.1,455.6a41.827,41.827,0,0,1,41.6-36.7H570.3a41.976,41.976,0,0,1,41.6,36.7l9.1,72.9a28.777,28.777,0,0,0,.1-7.2l-9.2-73.5a41.827,41.827,0,0,0-41.6-36.7H411.7a41.976,41.976,0,0,0-41.6,36.7l-9.2,73.5a24.825,24.825,0,0,0,.1,7.2Z" transform="translate(-360.686 -409.3)" fill="#9b2121"/>
          <path id="XMLID_8_" d="M420.9,418.9s12.3,2.2,13.3,9c.8,5.5.7,9.1,2.8,11.3s7,6.7,16.9,6.7c-5.5-5.5-5.6-24.8-7.1-24.8-1.4,0-5-9.6-5-9.6l-4.8-2.2C437.1,409.3,419.4,411.5,420.9,418.9Z" transform="translate(-360.686 -409.3)" fill="#9b2121"/>
          <path id="XMLID_10_" d="M552.3,418.9s-12.3,2.2-13.3,9c-.8,5.5-.7,9.1-2.8,11.3-2.1,2.1-7,6.7-16.9,6.7,5.5-5.5,5.6-24.8,7.1-24.8,1.4,0,5-9.6,5-9.6l4.8-2.2C536.1,409.3,553.8,411.5,552.3,418.9Z" transform="translate(-360.686 -409.3)" fill="#9b2121"/>
        </g>
        <path id="XMLID_1201_" d="M594.8,551H387.2A26.375,26.375,0,0,1,361,521.3l9.2-73.5a41.827,41.827,0,0,1,41.6-36.7H570.4A41.976,41.976,0,0,1,612,447.8l9.2,73.5A26.633,26.633,0,0,1,594.8,551Z" transform="translate(-360.686 -409.3)" fill="none" stroke="#000" stroke-linecap="round" stroke-linejoin="round" stroke-miterlimit="10" stroke-width="4"/>
        <path id="XMLID_1200_" d="M415,473.2" transform="translate(-360.686 -409.3)" fill="none" stroke="#000" stroke-linecap="round" stroke-linejoin="round" stroke-miterlimit="10" stroke-width="4"/>
        <g id="XMLID_1195_" transform="translate(47.014 63.9)">
          <line id="XMLID_1199_" x1="2" y2="25.1" stroke-width="4" stroke="#000" stroke-linecap="round" stroke-linejoin="round" stroke-miterlimit="10" fill="none"/>
          <line id="XMLID_1196_" x2="2" y2="25.1" stroke-width="4" transform="translate(166.1)" stroke="#000" stroke-linecap="round" stroke-linejoin="round" stroke-miterlimit="10" fill="none"/>
        </g>
      </g>
      <g id="XMLID_78_" transform="translate(135.6 151.009)">
        <path id="XMLID_80_" d="M464.3,369.3l-32.9-1.7L416,369.3s-10.3,7.7-10.3,9.8,1,19.2,1,19.2,24.3,3.3,26.9,5.8,18,16.9,18,16.9l14.9-5.8,7.8-20.8Z" transform="translate(-392.7 -356.5)" fill="#9b2121"/>
        <path id="XMLID_72_" d="M458.5,356.6h-38a27.8,27.8,0,0,0-27.8,27.8h0a27.8,27.8,0,0,0,27.8,27.8h5a14.553,14.553,0,0,1,14.6,14.6v1.5a17.626,17.626,0,0,0,17.6,17.6h0v-18a.43.43,0,0,1,.4.4v-1.5a32.6,32.6,0,0,0-32.594-32.6H420.5a9.8,9.8,0,1,1,0-19.6h38Z" transform="translate(-392.7 -356.5)" fill="#f1534d"/>
        <path id="XMLID_81_" d="M456.2,415.5a32.8,32.8,0,0,0-30.6-21.4h-5a9.8,9.8,0,0,1,0-19.6h38v-18h-38a27.8,27.8,0,0,0-27.8,27.8h0a27.8,27.8,0,0,0,27.8,27.8h5a14.553,14.553,0,0,1,14.6,14.6v1.5a17.626,17.626,0,0,0,17.6,17.6" transform="translate(-392.7 -356.5)" fill="none" stroke="#000" stroke-linecap="round" stroke-linejoin="round" stroke-miterlimit="10" stroke-width="4"/>
      </g>
      <g id="XMLID_28_" transform="translate(240.7 151.009)">
        <path id="XMLID_82_" d="M507.8,369.3l32.9-1.7,15.4,1.7s10.3,7.7,10.3,9.8-1,19.2-1,19.2-24.3,3.3-26.9,5.8c-2.6,2.6-18,16.9-18,16.9l-14.9-5.8-7.8-20.8Z" transform="translate(-497.8 -356.5)" fill="#9b2121"/>
        <path id="XMLID_79_" d="M513.6,356.6h38a27.8,27.8,0,0,1,27.8,27.8h0a27.8,27.8,0,0,1-27.8,27.8h-5A14.553,14.553,0,0,0,532,426.8v1.5a17.626,17.626,0,0,1-17.6,17.6h0v-18a.43.43,0,0,0-.4.4v-1.5a32.6,32.6,0,0,1,32.594-32.6H551.6a9.8,9.8,0,0,0,0-19.6h-38Z" transform="translate(-497.8 -356.5)" fill="#f1534d"/>
        <path id="XMLID_71_" d="M516,415.5a32.8,32.8,0,0,1,30.6-21.4h5a9.8,9.8,0,0,0,0-19.6h-38v-18h38a27.8,27.8,0,0,1,27.8,27.8h0a27.8,27.8,0,0,1-27.8,27.8h-5A14.553,14.553,0,0,0,532,426.7v1.5a17.626,17.626,0,0,1-17.6,17.6" transform="translate(-497.8 -356.5)" fill="none" stroke="#000" stroke-linecap="round" stroke-linejoin="round" stroke-miterlimit="10" stroke-width="4"/>
      </g>
      <circle id="XMLID_74_" cx="39" cy="39" r="39" transform="translate(191.8 148.209)" fill="#f46262"/>
      <path id="XMLID_2426_" d="M450.6,381.2a69.147,69.147,0,0,0,37.3,11,68.3,68.3,0,0,0,37.3-11,39,39,0,0,0-74.6,0Z" transform="translate(-257.1 -205.491)" fill="#f1534d"/>
      <circle id="XMLID_23_" cx="39" cy="39" r="39" stroke-width="4" transform="translate(191.8 148.209)" stroke="#000" stroke-linecap="round" stroke-linejoin="round" stroke-miterlimit="10" fill="none"/>
      <path id="XMLID_70_" d="M487.9,415.3h0a23,23,0,0,1-23-23V375.1a5.8,5.8,0,0,1,5.8-5.8h34.5a5.8,5.8,0,0,1,5.8,5.8v17.2a23.153,23.153,0,0,1-23.1,23Z" transform="translate(-257.1 -205.491)" fill="#ffc897"/>
      <path id="XMLID_2425_" d="M505.2,369.3H470.7a6.028,6.028,0,0,0-5.8,6.2v14.1a65.076,65.076,0,0,0,46,0V375.5a6.013,6.013,0,0,0-5.7-6.2Z" transform="translate(-257.1 -205.491)" fill="#e5a973"/>
      <path id="XMLID_15_" d="M487.9,415.3h0a23,23,0,0,1-23-23V375.1a5.8,5.8,0,0,1,5.8-5.8h34.5a5.8,5.8,0,0,1,5.8,5.8v17.2a23.153,23.153,0,0,1-23.1,23Z" transform="translate(-257.1 -205.491)" fill="none" stroke="#000" stroke-linecap="round" stroke-linejoin="round" stroke-miterlimit="10" stroke-width="4"/>
      <path id="XMLID_25_" d="M465.7,404.2" transform="translate(-257.1 -205.491)" fill="none" stroke="#000" stroke-linecap="round" stroke-linejoin="round" stroke-miterlimit="10" stroke-width="4"/>
      <rect id="XMLID_30_" width="21.4" height="68.3" transform="translate(234.3 468.909)" fill="#607691"/>
      <rect id="XMLID_33_" width="21.4" height="68.3" stroke-width="4" transform="translate(234.3 468.909)" stroke="#000" stroke-linecap="round" stroke-linejoin="round" stroke-miterlimit="10" fill="none"/>
      <path id="XMLID_54_" d="M386.5,629.2a45.133,45.133,0,0,1-2.2-6.5A23.783,23.783,0,0,1,386.5,629.2Z" transform="translate(-257.1 -205.491)" fill="none" stroke="#000" stroke-linecap="round" stroke-linejoin="round" stroke-miterlimit="10" stroke-width="4"/>
      <path id="XMLID_51_" d="M595.6,629a24.9,24.9,0,0,1,2-6,38.379,38.379,0,0,1-2,6Z" transform="translate(-257.1 -205.491)" fill="none" stroke="#000" stroke-linecap="round" stroke-linejoin="round" stroke-miterlimit="10" stroke-width="4"/>
      <g id="XMLID_88_" transform="translate(101.884 287.209)">
        <path id="XMLID_73_" d="M595.3,624.2H386.8a14.867,14.867,0,0,1-14.7-12.9l-13-101.8a14.884,14.884,0,0,1,14.7-16.7H608.3A14.835,14.835,0,0,1,623,509.5L610,611.3a14.953,14.953,0,0,1-14.7,12.9Z" transform="translate(-358.984 -492.7)" fill="#b5b5b5"/>
        <path id="XMLID_1188_" d="M609.9,604.9a14.718,14.718,0,0,1-14.7,12.9H386.8a14.867,14.867,0,0,1-14.7-12.9L359.3,504.6a16.01,16.01,0,0,0-.2,4.9l13,101.8a14.718,14.718,0,0,0,14.7,12.9H595.3A14.867,14.867,0,0,0,610,611.3l13-101.8a16.008,16.008,0,0,0-.2-4.9Z" transform="translate(-358.984 -492.7)" fill="#7e7e7e" opacity="0.21"/>
        <path id="XMLID_91_" d="M359.2,510.4a14.82,14.82,0,0,1,14.5-12.2H608.2a14.647,14.647,0,0,1,14.5,12.2l.1-1a14.884,14.884,0,0,0-14.7-16.7H373.8a14.835,14.835,0,0,0-14.7,16.7Z" transform="translate(-358.984 -492.7)" fill="#7e7e7e" opacity="0.21"/>
        <path id="XMLID_29_" d="M595.3,624.2H386.8a14.867,14.867,0,0,1-14.7-12.9l-13-101.8a14.884,14.884,0,0,1,14.7-16.7H608.3A14.835,14.835,0,0,1,623,509.5L610,611.3a14.953,14.953,0,0,1-14.7,12.9Z" transform="translate(-358.984 -492.7)" fill="none" stroke="#000" stroke-linecap="round" stroke-linejoin="round" stroke-miterlimit="10" stroke-width="4"/>
        <path id="XMLID_1190_" d="M500.9,552.3a8.066,8.066,0,0,1-8.1-8.1,2.77,2.77,0,0,1,.1-.9,19.433,19.433,0,0,0-2.4-.2,13.3,13.3,0,1,0,13.3,13.3,16.186,16.186,0,0,0-.7-4.4,14.605,14.605,0,0,1-2.2.3Z" transform="translate(-358.984 -492.7)" fill="#b5b5b5" opacity="0.66"/>
      </g>
      <g id="XMLID_39_" transform="translate(255.7 471.909)">
        <path id="XMLID_36_" d="M604.1,713.2c-3.3-10.7-13.4-16.4-29.8-21.2-10.4-3-23.6-4.4-44.3-8.6a63.745,63.745,0,0,1-17.2-6v11.5s68.5,13.5,79.2,31.2c5.2,8.7,3.6,30-20.9,32.2,7.5,1.1,19.8-.8,26.4-7.5C605.7,736.5,607.9,725.4,604.1,713.2Z" transform="translate(-512.8 -677.4)" fill="#282323" stroke="#000" stroke-linecap="round" stroke-linejoin="round" stroke-miterlimit="10" stroke-width="4"/>
        <path id="XMLID_52_" d="M512.8,688.9s41,7.6,62.9,17c19.2,8.3,18.6,16.9,19.1,25.7.3,5.1-3.3,17.7-17.9,19.9-17.4,2.6-37.9-.2-64.1-16.9Z" transform="translate(-512.8 -677.4)" fill="#442c2a"/>
        <path id="XMLID_1212_" d="M594.8,731.6c-.4-7.1-.1-14.1-10.1-20.9a61.479,61.479,0,0,1,.6,7.4c.3,5.1-3.3,17.7-17.9,19.9-15.2,2.3-32.9.4-54.6-11.3v7.8c26.2,16.7,46.7,19.4,64.1,16.9C591.6,749.3,595.1,736.6,594.8,731.6Z" transform="translate(-512.8 -677.4)" fill="#442c2a" opacity="0.37"/>
        <path id="XMLID_34_" d="M512.8,688.9s41,7.6,62.9,17c19.2,8.3,18.6,16.9,19.1,25.7.3,5.1-3.3,17.7-17.9,19.9-17.4,2.6-37.9-.2-64.1-16.9Z" transform="translate(-512.8 -677.4)" fill="none" stroke="#000" stroke-linecap="round" stroke-linejoin="round" stroke-miterlimit="10" stroke-width="4"/>
        <path id="XMLID_37_" d="M550.8,712.4c3.3,1.8,2.5,19.3-5.5,21.7" transform="translate(-512.8 -677.4)" fill="none" stroke="#000" stroke-linecap="round" stroke-linejoin="round" stroke-miterlimit="10" stroke-width="4"/>
        <path id="XMLID_38_" d="M538.3,711.1c3.4,4.8,1,16.1-5.1,18.9" transform="translate(-512.8 -677.4)" fill="none" stroke="#000" stroke-linecap="round" stroke-linejoin="round" stroke-miterlimit="10" stroke-width="4"/>
        <path id="XMLID_40_" d="M526.8,707.1c3.4,4.8,1,16.1-5.1,18.9" transform="translate(-512.8 -677.4)" fill="none" stroke="#000" stroke-linecap="round" stroke-linejoin="round" stroke-miterlimit="10" stroke-width="4"/>
      </g>
      <line id="XMLID_83_" y2="53.2" stroke-width="6" transform="translate(195.7 230.209)" stroke="#000" stroke-linecap="round" stroke-linejoin="round" stroke-miterlimit="10" fill="none"/>
      <line id="XMLID_84_" y2="37.5" stroke-width="6" transform="translate(263.2 230.209)" stroke="#000" stroke-linecap="round" stroke-linejoin="round" stroke-miterlimit="10" fill="none"/>
      <circle id="XMLID_27_" cx="8.3" cy="8.3" r="8.3" transform="translate(254.9 262.409)"/>
      <circle id="XMLID_86_" cx="3.4" cy="3.4" r="3.4" transform="translate(259.8 266.309)" fill="#7e7e7e"/>
      <g id="XMLID_41_" transform="translate(155.199)">
        <path id="XMLID_5_" d="M487.9,386.2h0a63.1,63.1,0,0,1-63.1-63.1V249.9H551v73.2a63.1,63.1,0,0,1-63.1,63.1Z" transform="translate(-412.299 -205.491)" fill="#ffc897"/>
        <path id="XMLID_1198_" d="M487.9,377.5h0a63.1,63.1,0,0,1-63.1-63.1v8.7a63.1,63.1,0,0,0,63.1,63.1h0A63.1,63.1,0,0,0,551,323.1v-8.7a63.1,63.1,0,0,1-63.1,63.1Z" transform="translate(-412.299 -205.491)" fill="#e5a973"/>
        <path id="XMLID_2424_" d="M487.9,386.2h0a63.1,63.1,0,0,1-63.1-63.1V249.9H551v73.2a63.1,63.1,0,0,1-63.1,63.1Z" transform="translate(-412.299 -205.491)" fill="none" stroke="#000" stroke-linecap="round" stroke-linejoin="round" stroke-miterlimit="10" stroke-width="4"/>
        <path id="XMLID_1197_" d="M551.5,257.2c-.2-3.4-.4-6.9-.5-10.3-42,2-84.2,1.7-126.1-2-.3,3.9-.5,7.8-.8,11.7,1.9,1.7,3.9,3.5,5.8,5.2,1.6.8,3.7,1.9,5.6,2.9,8.4,4.4,20.1,10,31.3,12.2a59.811,59.811,0,0,0,12.8,1.1c18.9-.2,34.8-7.7,41.5-10.8a12.125,12.125,0,0,1,2.3-1,2.9,2.9,0,0,1,1.4-.3,27.36,27.36,0,0,1,4.3.6,26.041,26.041,0,0,0,7.7.8,18.393,18.393,0,0,0,9.2-3.1C547.7,261.8,549.6,259.5,551.5,257.2Z" transform="translate(-412.299 -205.491)" fill="#e5a973"/>
        <path id="XMLID_68_" d="M521.1,219.2s-50.5-33.3-92.3,3.9c-7.8,6.9-10.9,16.8-10.9,25.9v48.2h7v-35c0-2.6,1.8-4.6,4-4.6h0c3.6,0,23.1,10.4,39.6,13.3,24.9,4.3,47.6-7.2,52.5-8.9,8.4-3,15.2,7.4,25.8-4.3h.4c2.2,0,4,2.1,4,4.6v35h7v-48C558,237.5,544.4,207.9,521.1,219.2Z" transform="translate(-412.299 -205.491)" fill="#231a17"/>
        <g id="XMLID_2783_" transform="translate(5.501 85.109)" opacity="0.34">
          <rect id="XMLID_2784_" width="7" height="6.6" fill="#231a17"/>
          <rect id="XMLID_2785_" width="7" height="6.6" transform="translate(133.2)" fill="#231a17"/>
        </g>
        <path id="XMLID_3_" d="M521.1,219.2s-50.5-33.3-92.3,3.9c-7.8,6.9-10.9,16.8-10.9,25.9v48.2h7v-35c0-2.6,1.8-4.6,4-4.6h0c3.6,0,23.1,10.4,39.6,13.3,24.9,4.3,47.6-7.2,52.5-8.9,8.4-3,15.2,7.4,25.8-4.3h.4c2.2,0,4,2.1,4,4.6v35h7v-48C558,237.5,544.4,207.9,521.1,219.2Z" transform="translate(-412.299 -205.491)" fill="none" stroke="#000" stroke-linecap="round" stroke-linejoin="round" stroke-miterlimit="10" stroke-width="4"/>
        <path id="XMLID_6_" d="M478.4,251.7s-54.2,3.5-65.7-25.3" transform="translate(-412.299 -205.491)" fill="none" stroke="#000" stroke-linecap="round" stroke-linejoin="round" stroke-miterlimit="10" stroke-width="4"/>
        <path id="XMLID_9_" d="M486.1,244.8s-52.2-3.3-65.8-32.1" transform="translate(-412.299 -205.491)" fill="none" stroke="#000" stroke-linecap="round" stroke-linejoin="round" stroke-miterlimit="10" stroke-width="4"/>
        <path id="XMLID_85_" d="M551,289.4v32.8c7,0,12.6-7.3,12.6-16.4h0C563.6,296.7,558,289.4,551,289.4Z" transform="translate(-412.299 -205.491)" fill="#ffc897"/>
        <path id="XMLID_1205_" d="M551,291.2v29.1c4.1-2.7,6.9-8.2,6.9-14.6h0C557.9,299.4,555.1,293.9,551,291.2Z" transform="translate(-412.299 -205.491)" fill="#e5a973"/>
        <path id="XMLID_12_" d="M551,289.4v32.8c7,0,12.6-7.3,12.6-16.4h0C563.6,296.7,558,289.4,551,289.4Z" transform="translate(-412.299 -205.491)" fill="none" stroke="#000" stroke-linecap="round" stroke-linejoin="round" stroke-miterlimit="10" stroke-width="4"/>
        <path id="XMLID_87_" d="M424.9,289.4v32.8c-7,0-12.6-7.3-12.6-16.4h0C412.2,296.7,417.9,289.4,424.9,289.4Z" transform="translate(-412.299 -205.491)" fill="#ffc897"/>
        <path id="XMLID_1203_" d="M424.9,291.8c-3.6,2.9-6.1,8.1-6.1,14h0c0,5.9,2.4,11.1,6.1,14Z" transform="translate(-412.299 -205.491)" fill="#e5a973"/>
        <path id="XMLID_11_" d="M424.9,289.4v32.8c-7,0-12.6-7.3-12.6-16.4h0C412.2,296.7,417.9,289.4,424.9,289.4Z" transform="translate(-412.299 -205.491)" fill="none" stroke="#000" stroke-linecap="round" stroke-linejoin="round" stroke-miterlimit="10" stroke-width="4"/>
        <path id="XMLID_7_" d="M485.3,316.1l-4.2,13.7c0,1.5,4.9.3,9.9,1.5" transform="translate(-412.299 -205.491)" fill="none" stroke="#000" stroke-linecap="round" stroke-linejoin="round" stroke-miterlimit="10" stroke-width="4"/>
        <path id="XMLID_16_" d="M508.9,341.7c1.5,10.4-11.9,19.6-22.4,17.7" transform="translate(-412.299 -205.491)" fill="none" stroke="#000" stroke-linecap="round" stroke-linejoin="round" stroke-miterlimit="10" stroke-width="3"/>
        <g id="XMLID_19_" transform="translate(38.401 80.809)">
          <ellipse id="XMLID_14_" cx="4.2" cy="4.5" rx="4.2" ry="4.5" stroke-width="2" transform="translate(10.3 9.2)" stroke="#000" stroke-linecap="round" stroke-linejoin="round" stroke-miterlimit="10" fill="none"/>
          <ellipse id="XMLID_20_" cx="4.2" cy="4.5" rx="4.2" ry="4.5" transform="translate(10.3 9.2)"/>
          <path id="XMLID_17_" d="M450.7,290.5c2.1-2.5,7-4.2,12.8-4.2,4.6,0,8.6,1.1,11.1,2.8" transform="translate(-450.7 -286.3)" fill="none" stroke="#000" stroke-linecap="round" stroke-linejoin="round" stroke-miterlimit="10" stroke-width="3"/>
        </g>
        <g id="XMLID_13_" transform="translate(89.501 80.809)">
          <ellipse id="XMLID_22_" cx="4.2" cy="4.5" rx="4.2" ry="4.5" stroke-width="2" transform="translate(5.2 9.2)" stroke="#000" stroke-linecap="round" stroke-linejoin="round" stroke-miterlimit="10" fill="none"/>
          <ellipse id="XMLID_21_" cx="4.2" cy="4.5" rx="4.2" ry="4.5" transform="translate(5.2 9.2)"/>
          <path id="XMLID_18_" d="M525.7,290.5c-2.1-2.5-7-4.2-12.8-4.2-4.6,0-8.6,1.1-11.1,2.8" transform="translate(-501.8 -286.3)" fill="none" stroke="#000" stroke-linecap="round" stroke-linejoin="round" stroke-miterlimit="10" stroke-width="3"/>
        </g>
      </g>
    </g>
    <path id="XMLID_66_" d="M960,1080Z" fill="#3197d6"/>
  </g>
</svg>
